<svg width="58" height="55" xmlns="http://www.w3.org/2000/svg" xmlns:xlink="http://www.w3.org/1999/xlink" xml:space="preserve" overflow="hidden"><defs><clipPath id="clip0"><rect x="1049" y="19" width="58" height="55"/></clipPath><linearGradient x1="14.9213" y1="51.9636" x2="40.0787" y2="3.0404" gradientUnits="userSpaceOnUse" spreadMethod="pad" id="fill1"><stop offset="0" stop-color="#89B6E6"/><stop offset="0.09" stop-color="#73A7E0"/><stop offset="0.29" stop-color="#4A8BD6"/><stop offset="0.49" stop-color="#2A75CE"/><stop offset="0.67" stop-color="#1265C8"/><stop offset="0.85" stop-color="#045CC5"/><stop offset="1" stop-color="#0059C4"/></linearGradient></defs><g clip-path="url(#clip0)" transform="translate(-1049 -19)"><path d="M99.8746 46.8119 89.1798 19.5748 84.3839 46.8119 77.2159 46.8119 83.6683 10.2045 93.26 10.2045 103.733 36.8881 108.474 10.2045 115.642 10.2045 109.193 46.8119 99.8746 46.8119Z" fill="#0059C4" transform="matrix(1.02038 0 0 1 1049.16 19)"/><path d="M128.709 46.8119C119.299 46.8119 115.421 42.1267 117.077 32.7525L121.102 10.2045 128.598 10.2045 124.739 31.8155C124.19 34.9784 124.443 37.2004 125.51 38.4854 126.578 39.7703 128.689 40.4148 131.852 40.4148L139.404 40.4148 144.753 10.2006 152.305 10.2006 145.852 46.8079 128.705 46.8079Z" fill="#0059C4" transform="matrix(1.02038 0 0 1 1049.16 19)"/><path d="M161.236 32.7565 158.809 46.8158 151.312 46.8158 155.282 24.1571C156.934 14.858 162.43 10.2085 171.765 10.2085L182.902 10.2085 181.744 16.6056 172.536 16.6056C170.994 16.6056 169.657 16.7519 168.539 17.0484 167.416 17.3449 166.463 17.8312 165.672 18.5112 164.881 19.1913 164.241 20.0651 163.743 21.1286 163.249 22.1961 162.869 23.5008 162.612 25.0428L162.391 26.3673 179.427 26.3673 178.269 32.7644 161.232 32.7644Z" fill="#89B6E6" transform="matrix(1.02038 0 0 1 1049.16 19)"/><path d="M196.025 46.8119C189.924 46.8119 185.678 45.3253 183.29 42.3481 180.902 39.371 180.257 34.757 181.36 28.5102 182.464 22.2989 184.733 17.6968 188.169 14.6999 191.604 11.703 196.373 10.2085 202.477 10.2085L213.117 10.2085 211.958 16.6056 202.805 16.6056C200.967 16.6056 199.362 16.7637 197.982 17.0761 196.602 17.3884 195.4 17.8866 194.372 18.5626 193.344 19.2427 192.486 20.1244 191.81 21.2077 191.13 22.291 190.549 23.6234 190.074 25.2049L209.977 25.2049 208.819 31.602 188.916 31.602C188.659 34.7649 189.284 37.0225 190.79 38.3826 192.296 39.7426 194.906 40.4227 198.618 40.4227L208.321 40.4227 207.218 46.8198 196.025 46.8198Z" fill="#89B6E6" transform="matrix(1.02038 0 0 1 1049.16 19)"/><path d="M227.726 46.8119C221.625 46.8119 217.379 45.3253 214.991 42.3481 212.603 39.371 211.958 34.757 213.061 28.5102 214.164 22.2989 216.434 17.6968 219.87 14.6999 223.305 11.703 228.073 10.2085 234.178 10.2085L244.817 10.2085 243.659 16.6056 234.506 16.6056C232.668 16.6056 231.062 16.7637 229.683 17.0761 228.303 17.3884 227.101 17.8866 226.073 18.5626 225.045 19.2427 224.187 20.1244 223.511 21.2077 222.831 22.291 222.25 23.6234 221.775 25.2049L241.678 25.2049 240.52 31.602 220.617 31.602C220.36 34.7649 220.984 37.0225 222.491 38.3826 223.997 39.7426 226.607 40.4227 230.319 40.4227L240.022 40.4227 238.918 46.8198 227.726 46.8198Z" fill="#89B6E6" transform="matrix(1.02038 0 0 1 1049.16 19)"/><path d="M243.438 46.8119 249.89 10.2045 265.547 10.2045C271.647 10.2045 275.874 11.6753 278.226 14.6169 280.579 17.5584 281.203 22.1882 280.1 28.5102 278.997 34.8321 276.748 39.4619 273.347 42.4035 269.947 45.3451 265.195 46.8158 259.094 46.8158L243.438 46.8158ZM258.655 40.4187C260.786 40.4187 262.617 40.2092 264.143 39.7861 265.669 39.3631 266.962 38.6831 268.03 37.746 269.097 36.809 269.959 35.5794 270.619 34.0533 271.28 32.5271 271.813 30.6808 272.217 28.5141 272.584 26.3475 272.703 24.4972 272.576 22.975 272.446 21.4489 272.015 20.2193 271.28 19.2822 270.544 18.3452 269.489 17.6652 268.109 17.2421 266.729 16.8191 264.973 16.6095 262.842 16.6095L256.228 16.6095 252.037 40.4266 258.651 40.4266Z" fill="#89B6E6" transform="matrix(1.02038 0 0 1 1049.16 19)"/><path d="M55.004 27.502C55.004 42.6909 42.6909 55.004 27.502 55.004 12.3131 55.004-9.6526e-07 42.6909-9.6526e-07 27.502-9.6526e-07 12.3131 12.3131-9.6526e-07 27.502-9.6526e-07 42.6909-9.6526e-07 55.004 12.3131 55.004 27.502Z" fill="url(#fill1)" transform="matrix(1.02038 0 0 1 1049.16 19)"/><path d="M16.1746 12.6993 21.1523 15.9374C24.1571 17.8945 25.9482 21.1998 25.9482 24.7858L25.9482 31.3924 17.8668 26.134C14.862 24.1769 13.067 20.8716 13.067 17.2856L13.067 10.679 16.1707 12.6993C16.1707 12.6993 16.1707 12.6993 16.1707 12.6993Z" fill="#FFFFFF" transform="matrix(1.02038 0 0 1 1049.16 19)"/><path d="M29.0518 31.3964 29.0518 24.7897C29.0518 24.7897 29.0518 24.7897 29.0518 24.7858 29.0518 21.2037 30.8468 17.8984 33.8516 15.9413L38.8293 12.7033C38.8293 12.7033 38.8293 12.7033 38.8293 12.7033L41.933 10.6829 41.933 17.2896C41.933 20.8756 40.138 24.1848 37.1332 26.1379L29.0518 31.3964Z" fill="#FFFFFF" transform="matrix(1.02038 0 0 1 1049.16 19)"/><path d="M13.071 33.3258 13.071 26.7191 21.1523 31.9776C24.1571 33.9347 25.9521 37.24 25.9521 40.826L25.9521 47.4326 17.8708 42.1742C14.8659 40.2171 13.071 36.9118 13.071 33.3258Z" fill="#FFFFFF" transform="matrix(1.02038 0 0 1 1049.16 19)"/><path d="M41.933 33.3258C41.933 36.9118 40.138 40.2211 37.1332 42.1742L29.0518 47.4326 29.0518 40.826C29.0518 40.826 29.0518 40.826 29.0518 40.822 29.0518 37.24 30.8468 33.9347 33.8516 31.9776L41.933 26.7191 41.933 33.3258Z" fill="#FFFFFF" transform="matrix(1.02038 0 0 1 1049.16 19)"/></g></svg>