<svg width="58" height="56" xmlns="http://www.w3.org/2000/svg" xmlns:xlink="http://www.w3.org/1999/xlink" xml:space="preserve" overflow="hidden"><defs><clipPath id="clip0"><rect x="1125" y="19" width="58" height="56"/></clipPath><linearGradient x1="15.1926" y1="52.9083" x2="40.8074" y2="3.09568" gradientUnits="userSpaceOnUse" spreadMethod="pad" id="fill1"><stop offset="0" stop-color="#89B6E6"/><stop offset="0.09" stop-color="#73A7E0"/><stop offset="0.29" stop-color="#4A8BD6"/><stop offset="0.49" stop-color="#2A75CE"/><stop offset="0.67" stop-color="#1265C8"/><stop offset="0.85" stop-color="#045CC5"/><stop offset="1" stop-color="#0059C4"/></linearGradient></defs><g clip-path="url(#clip0)" transform="translate(-1125 -19)"><path d="M94.5048 47.663C88.3295 47.663 83.9416 46.0528 81.3411 42.8363 78.7406 39.6199 77.9999 34.8093 79.123 28.4086 80.2461 22.0079 82.6776 17.2014 86.4214 13.9809 90.1612 10.7644 95.1207 9.15419 101.296 9.15419 107.471 9.15419 111.851 10.7644 114.431 13.9809 117.016 17.2014 117.745 22.0079 116.621 28.4086 115.498 34.8093 113.075 39.6158 109.351 42.8363 105.627 46.0568 100.68 47.663 94.5048 47.663ZM95.6279 41.0973C99.0698 41.0973 101.896 40.0949 104.106 38.0942 106.312 36.0935 107.809 32.8649 108.598 28.4126 109.383 23.9603 109.037 20.7318 107.56 18.7311 106.082 16.7304 103.603 15.728 100.12 15.728 96.6383 15.728 93.8526 16.7304 91.6426 18.7311 89.4325 20.7318 87.939 23.9603 87.15 28.4126 86.365 32.8649 86.7112 36.0935 88.1886 38.0942 89.666 40.0949 92.1458 41.0973 95.6279 41.0973Z" fill="#0059C4" transform="matrix(1.00595 0 0 1 1125.08 19)"/><path d="M117.185 47.0471 123.755 9.77414 142.168 9.77414C146.173 9.77414 149.052 10.7926 150.811 12.8336 152.57 14.8746 153.073 17.8938 152.324 21.8992 151.612 25.9409 150.03 28.9802 147.582 31.0212 145.131 33.0622 141.886 34.0807 137.844 34.0807L127.068 34.0807 124.822 47.0471 117.189 47.0471ZM144.297 21.8992C144.97 18.1594 143.416 16.2875 139.64 16.2875L130.208 16.2875 128.243 27.5713 137.675 27.5713C141.491 27.5713 143.702 25.6833 144.301 21.9032Z" fill="#0059C4" transform="matrix(1.00595 0 0 1 1125.08 19)"/><path d="M160.017 47.0471 165.408 16.2835 153.282 16.2835 154.462 9.77011 186.292 9.77011 185.113 16.2835 173.044 16.2835 167.654 47.0471 160.021 47.0471Z" fill="#89B6E6" transform="matrix(1.00595 0 0 1 1125.08 19)"/><path d="M181.57 47.0471 188.14 9.77414 195.773 9.77414 189.207 47.0471 181.574 47.0471Z" fill="#89B6E6" transform="matrix(1.00595 0 0 1 1125.08 19)"/><path d="M230.183 47.0471 235.517 16.6217 220.699 47.0471 211.718 47.0471 207.507 16.6217 202.173 47.0471 194.931 47.0471 201.501 9.77414 214.077 9.77414 217.78 39.0764 231.814 9.77414 244.39 9.77414 237.824 47.0471 230.191 47.0471Z" fill="#89B6E6" transform="matrix(1.00595 0 0 1 1125.08 19)"/><path d="M243.544 47.0471 250.114 9.77414 257.747 9.77414 251.177 47.0471 243.544 47.0471Z" fill="#89B6E6" transform="matrix(1.00595 0 0 1 1125.08 19)"/><path d="M255.331 47.0471 256.398 40.8718 282.053 16.2835 260.891 16.2835 262.07 9.77011 292.946 9.77011 291.823 16.0017 266.224 40.5337 287.669 40.5337 286.546 47.0471 255.335 47.0471Z" fill="#89B6E6" transform="matrix(1.00595 0 0 1 1125.08 19)"/><path d="M306.975 47.0471C300.764 47.0471 296.441 45.5294 294.009 42.5022 291.578 39.4709 290.921 34.7731 292.045 28.4126 293.168 22.0884 295.478 17.4026 298.977 14.3512 302.475 11.2998 307.33 9.77816 313.545 9.77816L324.378 9.77816 323.199 16.2916 313.879 16.2916C312.007 16.2916 310.369 16.4526 308.968 16.7706 307.563 17.0886 306.339 17.5959 305.293 18.2842 304.246 18.9766 303.377 19.8743 302.684 20.9774 301.992 22.0804 301.4 23.437 300.917 25.0472L321.182 25.0472 320.002 31.5606 299.737 31.5606C299.476 34.7811 300.112 37.0797 301.646 38.4645 303.179 39.8493 305.836 40.5417 309.616 40.5417L319.495 40.5417 318.372 47.0551 306.975 47.0551Z" fill="#89B6E6" transform="matrix(1.00595 0 0 1 1125.08 19)"/><path d="M347.167 47.0471 340.597 33.1829 333.017 33.1829 330.602 47.0471 322.969 47.0471 329.539 9.77414 348.85 9.77414C352.815 9.77414 355.661 10.7282 357.384 12.6363 359.107 14.5445 359.61 17.4831 358.902 21.4484 358.563 23.433 358.04 25.0875 357.332 26.4159 356.619 27.7444 355.814 28.8313 354.916 29.6726 354.019 30.514 353.073 31.1702 352.082 31.6371 351.092 32.1041 350.146 32.4503 349.248 32.6757L356.378 47.0471 347.171 47.0471ZM344.474 26.6695C346.306 26.6695 347.747 26.2589 348.797 25.4337 349.844 24.6125 350.536 23.3001 350.875 21.5047 351.172 19.6328 350.939 18.2963 350.174 17.4912 349.405 16.6861 348.105 16.2835 346.273 16.2835L336 16.2835 334.205 26.6695 344.478 26.6695Z" fill="#89B6E6" transform="matrix(1.00595 0 0 1 1125.08 19)"/><path d="M56.004 28.002C56.004 43.4671 43.4671 56.004 28.002 56.004 12.5369 56.004-9.8281e-07 43.4671-9.8281e-07 28.002-9.8281e-07 12.5369 12.5369-9.8281e-07 28.002-9.8281e-07 43.4671-9.8281e-07 56.004 12.5369 56.004 28.002Z" fill="url(#fill1)" transform="matrix(1.00595 0 0 1 1125.08 19)"/><path d="M23.2397 30.9447C22.5997 30.2604 21.5289 30.2241 20.8405 30.8602 16.7706 34.443 14.4277 39.5917 14.3915 45.0142 14.3915 45.9521 15.1523 46.717 16.0943 46.717 17.0323 46.717 17.7971 45.9562 17.7971 45.0142 17.8213 40.5337 19.7737 36.2827 23.1552 33.344 23.8396 32.7039 23.8758 31.6331 23.2397 30.9447ZM40.5377 38.8349C39.9057 37.0032 38.9838 35.2803 37.8164 33.7304 36.0653 31.464 33.9317 29.5237 31.5043 27.998 35.3165 25.5665 41.6085 20.1722 41.6085 10.9858 41.6085 10.0479 40.8477 9.28301 39.9057 9.28301 38.9677 9.28301 38.2029 10.0439 38.2029 10.9858 38.2029 20.1722 30.3932 24.8822 27.998 26.11 26.3475 25.2284 24.8097 24.1495 23.4209 22.8935L27.998 22.8935C28.9359 22.8935 29.7008 22.1327 29.7008 21.1907 29.7008 20.2487 28.94 19.4879 27.998 19.4879L20.4299 19.4879C19.7294 18.4251 19.1578 17.2819 18.7271 16.0863L33.1024 16.0863C34.0404 16.0863 34.8053 15.3254 34.8053 14.3834 34.8053 13.4455 34.0444 12.6806 33.1024 12.6806L17.8938 12.6806C17.8253 12.117 17.7891 11.5494 17.7931 10.9778 17.7931 10.0398 17.0323 9.27496 16.0903 9.27496 15.1523 9.27496 14.3875 10.0358 14.3875 10.9778 14.3875 23.8557 26.8064 29.3305 27.3338 29.5519L27.3338 29.5519C29.2459 30.4697 31.0172 31.6613 32.5912 33.0904L27.998 33.0904C27.06 33.0904 26.2952 33.8512 26.2952 34.7932 26.2952 35.7311 27.056 36.496 27.998 36.496L35.5339 36.496C36.2384 37.5547 36.81 38.698 37.2367 39.8976L22.8976 39.8976C21.9596 39.8976 21.1947 40.6585 21.1947 41.6005 21.1947 42.5424 21.9556 43.3033 22.8976 43.3033L38.1062 43.3033C38.1747 43.8669 38.2069 44.4345 38.2069 45.0061 38.2069 45.9441 38.9677 46.7089 39.9097 46.7089 40.8477 46.7089 41.6125 45.9481 41.6125 45.0061 41.6206 43.7542 41.4918 42.5062 41.2382 41.2824 41.0731 40.4491 40.8396 39.6279 40.5417 38.8349Z" fill="#FFFFFF" transform="matrix(1.00595 0 0 1 1125.08 19)"/></g></svg>