<svg width="59" height="56" xmlns="http://www.w3.org/2000/svg" xmlns:xlink="http://www.w3.org/1999/xlink" xml:space="preserve" overflow="hidden"><defs><clipPath id="clip0"><rect x="976" y="19" width="59" height="56"/></clipPath><linearGradient x1="15.1926" y1="52.9083" x2="40.8074" y2="3.09165" gradientUnits="userSpaceOnUse" spreadMethod="pad" id="fill1"><stop offset="0" stop-color="#89B6E6"/><stop offset="0.09" stop-color="#73A7E0"/><stop offset="0.29" stop-color="#4A8BD6"/><stop offset="0.49" stop-color="#2A75CE"/><stop offset="0.67" stop-color="#1265C8"/><stop offset="0.85" stop-color="#045CC5"/><stop offset="1" stop-color="#0059C4"/></linearGradient></defs><g clip-path="url(#clip0)" transform="translate(-976 -19)"><path d="M101.69 47.663 90.8012 19.9307 85.9182 47.663 78.6198 47.663 85.1896 10.3901 94.9557 10.3901 105.619 37.5588 110.446 10.3901 117.745 10.3901 111.179 47.663 101.69 47.663Z" fill="#0059C4" transform="matrix(1.02986 0 0 1 976.058 19)"/><path d="M116.903 47.663 123.473 10.3901 131.105 10.3901 124.54 47.663 116.907 47.663Z" fill="#0059C4" transform="matrix(1.02986 0 0 1 976.058 19)"/><path d="M154.454 47.663 147.884 33.7989 140.304 33.7989 137.889 47.663 130.256 47.663 136.826 10.3901 156.137 10.3901C160.102 10.3901 162.948 11.3441 164.671 13.2522 166.394 15.1604 166.897 18.0991 166.188 22.0643 165.85 24.0489 165.327 25.7034 164.618 27.0318 163.906 28.3603 163.101 29.4472 162.203 30.2885 161.305 31.1299 160.359 31.7861 159.369 32.253 158.379 32.72 157.433 33.0662 156.535 33.2916L163.664 47.663 154.458 47.663ZM151.761 27.2855C153.592 27.2855 155.034 26.8748 156.084 26.0496 157.131 25.2284 157.823 23.916 158.161 22.1206 158.459 20.2487 158.226 18.9122 157.461 18.1071 156.692 17.302 155.392 16.8994 153.56 16.8994L143.287 16.8994 141.491 27.2855 151.765 27.2855Z" fill="#0059C4" transform="matrix(1.02986 0 0 1 976.058 19)"/><path d="M182.637 47.663C176.426 47.663 172.102 46.1454 169.671 43.1181 167.239 40.0868 166.583 35.389 167.706 29.0285 168.829 22.7043 171.14 18.0185 174.638 14.9671 178.136 11.9158 182.991 10.3941 189.207 10.3941L200.04 10.3941 198.86 16.9075 189.541 16.9075C187.669 16.9075 186.031 17.0685 184.63 17.3865 183.225 17.7045 182.001 18.2118 180.954 18.9002 179.908 19.5926 179.038 20.4903 178.346 21.5933 177.653 22.6963 177.062 24.0529 176.579 25.6631L196.843 25.6631 195.664 32.1766 175.399 32.1766C175.137 35.397 175.773 37.6956 177.307 39.0804 178.841 40.4652 181.498 41.1576 185.278 41.1576L195.157 41.1576 194.034 47.6711 182.637 47.6711Z" fill="#89B6E6" transform="matrix(1.02986 0 0 1 976.058 19)"/><path d="M215.361 48.2829C209.186 48.2829 204.798 46.6727 202.197 43.4563 199.597 40.2398 198.856 35.4292 199.979 29.0285 201.102 22.6278 203.534 17.8213 207.278 14.6008 211.017 11.3844 215.977 9.77414 222.152 9.77414 228.328 9.77414 232.707 11.3844 235.288 14.6008 237.872 17.8213 238.601 22.6278 237.478 29.0285 236.355 35.4292 233.931 40.2358 230.207 43.4563 226.484 46.6767 221.536 48.2829 215.361 48.2829ZM216.484 41.7132C219.926 41.7132 222.752 40.7108 224.962 38.7101 227.168 36.7094 228.666 33.4808 229.455 29.0285 230.24 24.5762 229.893 21.3477 228.416 19.347 226.939 17.3463 224.459 16.3439 220.977 16.3439 217.495 16.3439 214.709 17.3463 212.499 19.347 210.289 21.3477 208.795 24.5762 208.006 29.0285 207.221 33.4808 207.568 36.7094 209.045 38.7101 210.522 40.7108 213.002 41.7132 216.484 41.7132Z" fill="#89B6E6" transform="matrix(1.02986 0 0 1 976.058 19)"/><path d="M56.004 28.002C56.004 43.4671 43.4671 56.004 28.002 56.004 12.5369 56.004-9.8281e-07 43.4671-9.8281e-07 28.002-9.8281e-07 12.5369 12.5369-9.8281e-07 28.002-9.8281e-07 43.4671-9.8281e-07 56.004 12.5369 56.004 28.002Z" fill="url(#fill1)" transform="matrix(1.02986 0 0 1 976.058 19)"/><path d="M18.6465 9.29106 18.6465 13.9688 20.2044 15.5267 20.2044 22.3863 24.8822 22.3863C25.3975 22.3863 25.8161 22.805 25.8161 23.3203 25.8161 23.8355 25.3975 24.2542 24.8822 24.2542L20.2044 24.2542 20.2044 28.622 24.8822 28.622C25.3975 28.622 25.8161 29.0406 25.8161 29.5559 25.8161 30.0712 25.3975 30.4898 24.8822 30.4898L20.2044 30.4898 20.2044 34.8576 24.8822 34.8576C25.3975 34.8576 25.8161 35.2763 25.8161 35.7915 25.8161 36.3068 25.3975 36.7255 24.8822 36.7255L20.2044 36.7255 20.2044 40.4693C20.2044 43.9152 24.5561 46.7049 28.002 46.7049 31.4479 46.7049 35.7996 43.9112 35.7996 40.4693L35.7996 15.5187 37.3575 13.9608 37.3575 9.28301 18.6465 9.28301Z" fill="#FFFFFF" transform="matrix(1.02986 0 0 1 976.058 19)"/></g></svg>