<svg width="59" height="55" xmlns="http://www.w3.org/2000/svg" xmlns:xlink="http://www.w3.org/1999/xlink" xml:space="preserve" overflow="hidden"><defs><clipPath id="clip0"><rect x="1197" y="20" width="59" height="55"/></clipPath><linearGradient x1="14.7118" y1="51.234" x2="39.516" y2="2.99771" gradientUnits="userSpaceOnUse" spreadMethod="pad" id="fill1"><stop offset="0" stop-color="#89B6E6"/><stop offset="0.09" stop-color="#73A7E0"/><stop offset="0.29" stop-color="#4A8BD6"/><stop offset="0.49" stop-color="#2A75CE"/><stop offset="0.67" stop-color="#1265C8"/><stop offset="0.85" stop-color="#045CC5"/><stop offset="1" stop-color="#0059C4"/></linearGradient></defs><g clip-path="url(#clip0)" transform="translate(-1197 -20)"><path d="M98.4723 46.0572 87.9277 19.2025 83.1992 46.0572 76.1318 46.0572 82.4936 9.96379 91.9506 9.96379 102.277 36.2727 106.951 9.96379 114.018 9.96379 107.66 46.0572 98.4723 46.0572Z" fill="#0059C4" transform="matrix(1.03119 0 0 1 1197.14 20)"/><path d="M126.902 46.0572C117.624 46.0572 113.8 41.4378 115.433 32.1952L119.402 9.96379 126.793 9.96379 122.988 31.2713C122.446 34.3899 122.696 36.5807 123.748 37.8476 124.801 39.1184 126.882 39.7499 130.001 39.7499L137.446 39.7499 142.721 9.95989 150.166 9.95989 143.804 46.0533 126.898 46.0533Z" fill="#0059C4" transform="matrix(1.03119 0 0 1 1197.14 20)"/><path d="M163.05 46.0572C153.772 46.0572 149.948 41.4378 151.581 32.1952L155.55 9.96379 162.941 9.96379 159.136 31.2713C158.594 34.3899 158.844 36.5807 159.896 37.8476 160.949 39.1184 163.03 39.7499 166.149 39.7499L175.391 39.7499 174.304 46.0572 163.05 46.0572Z" fill="#89B6E6" transform="matrix(1.03119 0 0 1 1197.14 20)"/><path d="M176.966 46.0572 183.328 9.96379 190.719 9.96379 184.361 46.0572 176.97 46.0572Z" fill="#89B6E6" transform="matrix(1.03119 0 0 1 1197.14 20)"/><path d="M212.245 46.0572 201.7 19.2025 196.972 46.0572 189.904 46.0572 196.266 9.96379 205.723 9.96379 216.05 36.2727 220.724 9.96379 227.791 9.96379 221.433 46.0572 212.245 46.0572Z" fill="#89B6E6" transform="matrix(1.03119 0 0 1 1197.14 20)"/><path d="M248.448 46.0572 237.412 28.718 234.367 46.0572 226.976 46.0572 233.338 9.96379 240.729 9.96379 237.739 26.8703 254.809 9.96379 263.452 9.96379 245.512 27.685 257.636 46.0572 248.448 46.0572Z" fill="#89B6E6" transform="matrix(1.03119 0 0 1 1197.14 20)"/><path d="M54.2317 27.1158C54.2317 42.0915 42.0915 54.2317 27.1158 54.2317 12.1402 54.2317-9.51708e-07 42.0915-9.51708e-07 27.1158-9.51708e-07 12.1402 12.1402-9.51708e-07 27.1158-9.51708e-07 42.0915-9.51708e-07 54.2317 12.1402 54.2317 27.1158Z" fill="url(#fill1)" transform="matrix(1.03119 0 0 1 1197.14 20)"/><path d="M47.02 23.2683C45.6557 20.793 43.0244 19.109 40.0033 19.109 37.9723 19.109 36.1207 19.8769 34.7095 21.1282 34.3509 20.906 33.9962 20.6877 33.6531 20.4772 33.0177 20.0835 32.4018 19.7054 31.7898 19.335 31.053 18.8907 30.0941 19.1284 29.6497 19.8652 29.2053 20.602 29.4431 21.5609 30.1798 22.0053 30.7801 22.3678 31.3844 22.7421 32.012 23.128 32.2732 23.2917 32.546 23.4554 32.815 23.6231 32.3004 24.6795 32.0042 25.8606 32.0042 27.1119 32.0042 27.9345 32.1289 28.7258 32.3589 29.4743 30.6437 30.5774 28.6322 31.9145 26.266 33.5206 24.9329 31.6572 22.8239 30.3864 20.4148 30.1876 20.2238 28.0709 20.1459 26.0166 20.1771 24.048 24.3949 23.8258 27.759 20.3369 27.759 16.0645 27.759 12.9264 25.9386 10.2133 23.3073 8.89958 25.4552 4.21395 28.219 1.48521 29.9148 0.136437 28.9909 0.0506765 28.0592 0 27.1158 0 26.5545 0 25.9971 0.0233892 25.4435 0.0545747 23.7361 1.89062 21.8143 4.50631 20.2472 8.08486 20.0835 8.07316 19.9198 8.06147 19.7561 8.06147 16.9571 8.06147 14.4935 9.5077 13.0629 11.6907 10.3965 10.9149 8.04977 10.3302 6.16694 9.90921 5.44578 10.7824 4.78698 11.7102 4.17887 12.6691 6.11237 13.0745 8.76704 13.6983 11.8934 14.5987 11.8037 15.0743 11.7531 15.5655 11.7531 16.0684 11.7531 19.5378 13.975 22.4887 17.0663 23.5958 17.0117 25.8177 17.0975 28.145 17.3158 30.5385 16.9805 30.6476 16.6492 30.7724 16.3256 30.9283 15.546 31.2986 15.2147 32.2303 15.585 33.006 15.9553 33.7857 16.887 34.117 17.6627 33.7467 18.1383 33.5206 18.6373 33.3802 19.1557 33.3179 19.1635 33.3179 19.1713 33.3179 19.1791 33.3179 19.1908 33.3179 19.2025 33.3101 19.2181 33.3101 19.3974 33.2906 19.5767 33.2828 19.7561 33.2828 22.4497 33.2828 24.6405 35.4736 24.6405 38.1672 24.6405 40.4048 23.128 42.2915 21.0736 42.8646 21.0736 42.8646 21.0658 42.8646 21.0619 42.8646 21.0619 42.8646 21.0581 42.8646 21.0542 42.8646 20.6409 42.9776 20.2082 43.0439 19.76 43.0439 17.0663 43.0439 14.8755 40.8531 14.8755 38.1594 14.8755 37.2979 14.1777 36.6002 13.3162 36.6002 12.4547 36.6002 11.757 37.2979 11.757 38.1594 11.757 40.1241 12.4742 41.9251 13.6554 43.3206 12.1546 44.6733 10.6811 46.0689 9.25432 47.4956 10.0418 48.1856 10.8682 48.8327 11.7336 49.4291 13.1642 48.0102 14.6377 46.6263 16.1385 45.2853 17.2261 45.8428 18.458 46.1624 19.76 46.1624 19.9588 46.1624 20.1498 46.1468 20.3447 46.1312 20.7618 47.5931 21.2257 49.0939 21.7246 50.6142 21.9429 51.2691 22.5511 51.6862 23.206 51.6862 23.3697 51.6862 23.5334 51.6589 23.6971 51.6082 24.5158 51.3392 24.9601 50.4543 24.6912 49.6357 24.2039 48.1661 23.7556 46.7121 23.3541 45.3009 25.9659 43.9833 27.7668 41.278 27.7668 38.1594 27.7668 37.5591 27.6967 36.9783 27.568 36.413 30.0239 34.7407 32.1016 33.3608 33.8597 32.2225 35.3293 33.9884 37.5435 35.1149 40.0111 35.1149 42.1005 35.1149 44.0028 34.3041 45.4296 32.9865 45.5933 33.1347 45.7531 33.2789 45.9207 33.427 47.9283 35.2202 49.9944 37.0718 51.4835 39.0287 51.998 37.9762 52.4463 36.8808 52.8244 35.7581 51.3314 34.0819 49.5928 32.5226 48.0024 31.0998 47.7568 30.8815 47.519 30.6671 47.2812 30.4527 47.7529 29.4353 48.0219 28.3048 48.0219 27.1119 48.0219 26.8196 48.0024 26.5311 47.9712 26.2465 49.7994 25.7554 51.959 25.3188 54.1459 24.9134 54.0602 23.8648 53.9237 22.8317 53.721 21.8182 51.3704 22.2509 49.0315 22.7265 47.0317 23.2683ZM14.8677 16.0684C14.8677 13.3747 17.0585 11.1839 19.7522 11.1839 22.4458 11.1839 24.6366 13.3747 24.6366 16.0684 24.6366 18.762 22.4458 20.9528 19.7522 20.9528 17.0585 20.9528 14.8677 18.762 14.8677 16.0684ZM40.0033 32.0003C37.3096 32.0003 35.1188 29.8095 35.1188 27.1158 35.1188 24.4222 37.3096 22.2314 40.0033 22.2314 42.6969 22.2314 44.8877 24.4222 44.8877 27.1158 44.8877 29.8095 42.6969 32.0003 40.0033 32.0003Z" fill="#FFFFFF" transform="matrix(1.03119 0 0 1 1197.14 20)"/></g></svg>