<?xml version="1.0" encoding="UTF-8"?><svg id="Capa_1" xmlns="http://www.w3.org/2000/svg" xmlns:xlink="http://www.w3.org/1999/xlink" viewBox="0 0 709.79 139.11"><defs><style>.cls-1{fill:url(#Degradado_sin_nombre_85);}.cls-1,.cls-2,.cls-3,.cls-4{stroke-width:0px;}.cls-2{fill:#89b6e6;}.cls-3{fill:#fff;}.cls-4{fill:#0059c4;}</style><linearGradient id="Degradado_sin_nombre_85" x1="37.74" y1="131.43" x2="101.37" y2="7.69" gradientUnits="userSpaceOnUse"><stop offset="0" stop-color="#89b6e6"/><stop offset=".09" stop-color="#73a7e0"/><stop offset=".29" stop-color="#4a8bd6"/><stop offset=".49" stop-color="#2a75ce"/><stop offset=".67" stop-color="#1265c8"/><stop offset=".85" stop-color="#045cc5"/><stop offset="1" stop-color="#0059c4"/></linearGradient></defs><path class="cls-4" d="M252.61,118.4l-27.05-68.89-12.13,68.89h-18.13l16.32-92.59h24.26l26.49,67.49,11.99-67.49h18.13l-16.31,92.59h-23.57Z"/><path class="cls-4" d="M325.54,118.4c-23.8,0-33.61-11.85-29.42-35.56l10.18-57.03h18.96l-9.76,54.66c-1.39,8-.75,13.62,1.95,16.87,2.7,3.25,8.04,4.88,16.04,4.88h19.1l13.53-76.42h19.1l-16.32,92.59h-43.37Z"/><path class="cls-2" d="M407.81,82.85l-6.14,35.56h-18.96l10.04-57.31c4.18-23.52,18.08-35.28,41.69-35.28h28.17l-2.93,16.18h-23.29c-3.9,0-7.28.37-10.11,1.12-2.84.75-5.25,1.98-7.25,3.7-2,1.72-3.62,3.93-4.88,6.62-1.25,2.7-2.21,6-2.86,9.9l-.56,3.35h43.09l-2.93,16.18h-43.09Z"/><path class="cls-2" d="M495.8,118.4c-15.43,0-26.17-3.76-32.21-11.29-6.04-7.53-7.67-19.2-4.88-35,2.79-15.71,8.53-27.35,17.22-34.93,8.69-7.58,20.75-11.36,36.19-11.36h26.91l-2.93,16.18h-23.15c-4.65,0-8.71.4-12.2,1.19-3.49.79-6.53,2.05-9.13,3.76-2.6,1.72-4.77,3.95-6.48,6.69-1.72,2.74-3.19,6.11-4.39,10.11h50.34l-2.93,16.18h-50.34c-.65,8,.93,13.71,4.74,17.15,3.81,3.44,10.41,5.16,19.8,5.16h24.54l-2.79,16.18h-28.31Z"/><path class="cls-2" d="M575.98,118.4c-15.43,0-26.17-3.76-32.21-11.29-6.04-7.53-7.67-19.2-4.88-35,2.79-15.71,8.53-27.35,17.22-34.93,8.69-7.58,20.75-11.36,36.19-11.36h26.91l-2.93,16.18h-23.15c-4.65,0-8.71.4-12.2,1.19-3.49.79-6.53,2.05-9.13,3.76-2.6,1.72-4.77,3.95-6.48,6.69-1.72,2.74-3.19,6.11-4.39,10.11h50.34l-2.93,16.18h-50.34c-.65,8,.93,13.71,4.74,17.15,3.81,3.44,10.41,5.16,19.8,5.16h24.54l-2.79,16.18h-28.31Z"/><path class="cls-2" d="M615.72,118.4l16.32-92.59h39.6c15.43,0,26.12,3.72,32.07,11.16,5.95,7.44,7.53,19.15,4.74,35.14-2.79,15.99-8.48,27.7-17.08,35.14-8.6,7.44-20.62,11.16-36.05,11.16h-39.6ZM654.21,102.23c5.39,0,10.02-.53,13.88-1.6,3.86-1.07,7.13-2.79,9.83-5.16,2.7-2.37,4.88-5.48,6.55-9.34,1.67-3.86,3.02-8.53,4.04-14.01.93-5.48,1.23-10.16.91-14.01-.33-3.86-1.42-6.97-3.28-9.34-1.86-2.37-4.53-4.09-8.02-5.16-3.49-1.07-7.93-1.6-13.32-1.6h-16.73l-10.6,60.24h16.73Z"/><circle class="cls-1" cx="69.56" cy="69.56" r="69.56"/><path class="cls-3" d="M40.91,32.12l12.59,8.19c7.6,4.95,12.13,13.31,12.13,22.38v16.71l-20.44-13.3c-7.6-4.95-12.14-13.31-12.14-22.38v-16.71l7.85,5.11s0,0,0,0Z"/><path class="cls-3" d="M73.48,79.41v-16.71s0,0,0-.01c0-9.06,4.54-17.42,12.14-22.37l12.59-8.19s0,0,0,0l7.85-5.11v16.71c0,9.07-4.54,17.44-12.14,22.38l-20.44,13.3Z"/><path class="cls-3" d="M33.06,84.29v-16.71l20.44,13.3c7.6,4.95,12.14,13.31,12.14,22.38v16.71l-20.44-13.3c-7.6-4.95-12.14-13.31-12.14-22.38Z"/><path class="cls-3" d="M106.06,84.29c0,9.07-4.54,17.44-12.14,22.38l-20.44,13.3v-16.71s0,0,0-.01c0-9.06,4.54-17.42,12.14-22.37l20.44-13.3v16.71Z"/></svg>