<?xml version="1.0" encoding="UTF-8"?><svg id="Capa_1" xmlns="http://www.w3.org/2000/svg" xmlns:xlink="http://www.w3.org/1999/xlink" viewBox="0 0 892.32 139.11"><defs><style>.cls-1{fill:url(#Degradado_sin_nombre_85);}.cls-1,.cls-2,.cls-3,.cls-4{stroke-width:0px;}.cls-2{fill:#89b6e6;}.cls-3{fill:#fff;}.cls-4{fill:#0059c4;}</style><linearGradient id="Degradado_sin_nombre_85" x1="37.74" y1="131.43" x2="101.37" y2="7.69" gradientUnits="userSpaceOnUse"><stop offset="0" stop-color="#89b6e6"/><stop offset=".09" stop-color="#73a7e0"/><stop offset=".29" stop-color="#4a8bd6"/><stop offset=".49" stop-color="#2a75ce"/><stop offset=".67" stop-color="#1265c8"/><stop offset=".85" stop-color="#045cc5"/><stop offset="1" stop-color="#0059c4"/></linearGradient></defs><path class="cls-4" d="M234.76,118.4c-15.34,0-26.24-4-32.7-11.99-6.46-7.99-8.3-19.94-5.51-35.84,2.79-15.9,8.83-27.84,18.13-35.84,9.29-7.99,21.61-11.99,36.95-11.99s26.22,4,32.63,11.99c6.42,8,8.23,19.94,5.44,35.84-2.79,15.9-8.81,27.84-18.06,35.84-9.25,8-21.54,11.99-36.88,11.99ZM237.55,102.09c8.55,0,15.57-2.49,21.06-7.46,5.48-4.97,9.2-12.99,11.16-24.05,1.95-11.06,1.09-19.08-2.58-24.05-3.67-4.97-9.83-7.46-18.48-7.46s-15.57,2.49-21.06,7.46c-5.49,4.97-9.2,12.99-11.16,24.05-1.95,11.06-1.09,19.08,2.58,24.05,3.67,4.97,9.83,7.46,18.48,7.46Z"/><path class="cls-4" d="M291.1,116.87l16.32-92.59h45.74c9.95,0,17.1,2.53,21.47,7.6,4.37,5.07,5.62,12.57,3.76,22.52-1.77,10.04-5.7,17.59-11.78,22.66-6.09,5.07-14.15,7.6-24.19,7.6h-26.77l-5.58,32.21h-18.96ZM358.45,54.4c1.67-9.29-2.19-13.94-11.57-13.94h-23.43l-4.88,28.03h23.43c9.48,0,14.97-4.69,16.46-14.08Z"/><path class="cls-2" d="M397.5,116.87l13.39-76.42h-30.12l2.93-16.18h79.07l-2.93,16.18h-29.98l-13.39,76.42h-18.96Z"/><path class="cls-2" d="M451.04,116.87l16.32-92.59h18.96l-16.31,92.59h-18.96Z"/><path class="cls-2" d="M571.8,116.87l13.25-75.58-36.81,75.58h-22.31l-10.46-75.58-13.25,75.58h-17.99l16.32-92.59h31.24l9.2,72.79,34.86-72.79h31.24l-16.31,92.59h-18.96Z"/><path class="cls-2" d="M604.99,116.87l16.32-92.59h18.96l-16.32,92.59h-18.96Z"/><path class="cls-2" d="M634.27,116.87l2.65-15.34,63.73-61.08h-52.57l2.93-16.18h76.7l-2.79,15.48-63.59,60.94h53.27l-2.79,16.18h-77.53Z"/><path class="cls-2" d="M762.56,116.87c-15.43,0-26.17-3.77-32.21-11.29-6.04-7.53-7.67-19.2-4.88-35,2.79-15.71,8.53-27.35,17.22-34.93,8.69-7.58,20.75-11.36,36.19-11.36h26.91l-2.93,16.18h-23.15c-4.65,0-8.72.4-12.2,1.19-3.49.79-6.53,2.05-9.13,3.76-2.6,1.72-4.76,3.95-6.48,6.69-1.72,2.74-3.19,6.11-4.39,10.11h50.34l-2.93,16.18h-50.34c-.65,8,.93,13.71,4.74,17.15,3.81,3.44,10.41,5.16,19.8,5.16h24.54l-2.79,16.18h-28.31Z"/><path class="cls-2" d="M862.4,116.87l-16.32-34.44h-18.83l-6,34.44h-18.96l16.32-92.59h47.97c9.85,0,16.92,2.37,21.2,7.11,4.28,4.74,5.53,12.04,3.77,21.89-.84,4.93-2.14,9.04-3.9,12.34-1.77,3.3-3.77,6-6,8.09-2.23,2.09-4.58,3.72-7.04,4.88-2.46,1.16-4.81,2.02-7.04,2.58l17.71,35.7h-22.87ZM855.71,66.25c4.55,0,8.13-1.02,10.74-3.07,2.6-2.04,4.32-5.3,5.16-9.76.74-4.65.16-7.97-1.74-9.97-1.91-2-5.14-3-9.69-3h-25.52l-4.46,25.8h25.52Z"/><circle class="cls-1" cx="69.56" cy="69.56" r="69.56"/><path class="cls-3" d="M57.73,76.87c-1.59-1.7-4.25-1.79-5.96-.21-10.11,8.9-15.93,21.69-16.02,35.16,0,2.33,1.89,4.23,4.23,4.23,2.33,0,4.23-1.89,4.23-4.23.06-11.13,4.91-21.69,13.31-28.99,1.7-1.59,1.79-4.25.21-5.96ZM100.7,96.47c-1.57-4.55-3.86-8.83-6.76-12.68-4.35-5.63-9.65-10.45-15.68-14.24,9.47-6.04,25.1-19.44,25.1-42.26,0-2.33-1.89-4.23-4.23-4.23-2.33,0-4.23,1.89-4.23,4.23,0,22.82-19.4,34.52-25.35,37.57-4.1-2.19-7.92-4.87-11.37-7.99h11.37c2.33,0,4.23-1.89,4.23-4.23s-1.89-4.23-4.23-4.23h-18.8c-1.74-2.64-3.16-5.48-4.23-8.45h35.71c2.33,0,4.23-1.89,4.23-4.23,0-2.33-1.89-4.23-4.23-4.23h-37.78c-.17-1.4-.26-2.81-.25-4.23,0-2.33-1.89-4.23-4.23-4.23-2.33,0-4.23,1.89-4.23,4.23,0,31.99,30.85,45.59,32.16,46.14h0c4.75,2.28,9.15,5.24,13.06,8.79h-11.41c-2.33,0-4.23,1.89-4.23,4.23,0,2.33,1.89,4.23,4.23,4.23h18.72c1.75,2.63,3.17,5.47,4.23,8.45h-35.62c-2.33,0-4.23,1.89-4.23,4.23s1.89,4.23,4.23,4.23h37.78c.17,1.4.25,2.81.25,4.23,0,2.33,1.89,4.23,4.23,4.23,2.33,0,4.23-1.89,4.23-4.23.02-3.11-.3-6.21-.93-9.25-.41-2.07-.99-4.11-1.73-6.08Z"/></svg>