<svg width="1133" height="158" xmlns="http://www.w3.org/2000/svg" xmlns:xlink="http://www.w3.org/1999/xlink" xml:space="preserve" overflow="hidden"><defs><linearGradient x1="205.088" y1="104.31" x2="73.1891" y2="104.31" gradientUnits="userSpaceOnUse" spreadMethod="pad" id="fill0"><stop offset="0" stop-color="#004FF2"/><stop offset="0.1378" stop-color="#0658F3"/><stop offset="0.3624" stop-color="#1670F5"/><stop offset="0.646" stop-color="#3198F8"/><stop offset="0.9747" stop-color="#56CEFC"/><stop offset="1" stop-color="#59D3FC"/></linearGradient></defs><g transform="translate(-112 -277)"><path d="M244.618 210.497C243.188 210.497 242.013 210.14 241.093 209.373 240.174 208.607 239.714 207.688 239.714 206.564L239.714 112.017C239.714 110.893 240.174 109.922 241.093 109.207 242.013 108.441 243.188 108.083 244.618 108.083 246.15 108.083 247.427 108.543 248.398 109.411L331.657 196.093 331.657 112.017C331.657 110.893 332.117 109.922 333.036 109.207 333.955 108.441 335.13 108.083 336.56 108.083 337.888 108.083 339.012 108.441 339.983 109.207 340.953 109.973 341.464 110.893 341.464 112.017L341.464 206.564C341.464 207.688 340.953 208.658 339.983 209.373 339.012 210.14 337.837 210.497 336.56 210.497 335.794 210.497 335.13 210.395 334.517 210.191 333.904 209.986 333.393 209.68 332.985 209.322L249.522 122.488 249.522 206.513C249.522 207.637 249.062 208.607 248.142 209.322 247.223 210.088 246.048 210.497 244.618 210.497Z" stroke="#004FF2" stroke-width="0.255396" stroke-miterlimit="10" fill="#004FF2" transform="matrix(1.00228 0 0 1 42.7834 220.474)"/><path d="M415.222 212.591C405.619 212.591 397.089 211.059 389.734 208.045 382.378 205.032 376.555 200.843 372.367 195.48 368.178 190.117 366.033 183.987 366.033 177.04L366.033 112.017C366.033 110.791 366.493 109.82 367.412 109.156 368.332 108.441 369.506 108.083 370.937 108.083 372.469 108.083 373.644 108.441 374.563 109.156 375.432 109.871 375.891 110.842 375.891 112.017L375.891 177.04C375.891 182.455 377.577 187.256 380.897 191.394 384.217 195.531 388.865 198.8 394.842 201.15 400.818 203.499 407.611 204.674 415.222 204.674 422.986 204.674 429.831 203.499 435.705 201.15 441.579 198.8 446.227 195.531 449.65 191.394 453.021 187.256 454.706 182.455 454.706 177.04L454.706 112.017C454.706 110.791 455.166 109.82 456.086 109.156 457.005 108.441 458.18 108.083 459.61 108.083 461.142 108.083 462.317 108.441 463.237 109.156 464.105 109.871 464.565 110.842 464.565 112.017L464.565 177.04C464.565 183.936 462.47 190.065 458.231 195.48 454.042 200.843 448.219 205.032 440.762 208.045 433.355 211.059 424.825 212.591 415.222 212.591Z" stroke="#004FF2" stroke-width="0.255396" stroke-miterlimit="10" fill="#004FF2" transform="matrix(1.00228 0 0 1 42.7834 220.474)"/><path d="M494.037 210.497C492.607 210.497 491.432 210.14 490.513 209.373 489.593 208.607 489.134 207.688 489.134 206.564L489.134 112.017C489.134 110.791 489.593 109.82 490.513 109.156 491.432 108.441 492.607 108.083 494.037 108.083L526.83 108.083C534.799 108.083 541.898 109.463 548.028 112.272 554.209 115.081 559.01 118.963 562.534 123.867 566.008 128.822 567.796 134.491 567.796 140.825 567.796 147.21 566.059 152.88 562.534 157.886 559.061 162.891 554.209 166.773 548.028 169.532 541.847 172.341 534.799 173.72 526.83 173.72L498.992 173.72 498.992 206.513C498.992 207.637 498.532 208.607 497.664 209.322 496.796 210.088 495.57 210.497 494.037 210.497ZM498.992 165.905 526.83 165.905C532.96 165.905 538.323 164.832 542.971 162.687 547.619 160.542 551.297 157.579 553.953 153.85 556.609 150.07 557.988 145.78 557.988 140.876 557.988 135.973 556.66 131.682 553.953 127.953 551.297 124.224 547.619 121.313 542.971 119.168 538.323 117.022 532.96 115.95 526.83 115.95L498.992 115.95 498.992 165.905Z" stroke="#59D3FC" stroke-width="0.255396" stroke-miterlimit="10" fill="#59D3FC" transform="matrix(1.00228 0 0 1 42.7834 220.474)"/><path d="M570.605 115.183C569.277 115.183 568.204 114.877 567.387 114.213 566.57 113.549 566.161 112.681 566.161 111.659 566.161 110.586 566.57 109.769 567.387 109.105 568.204 108.441 569.277 108.135 570.605 108.135L663.365 108.135C664.693 108.135 665.765 108.441 666.583 109.105 667.4 109.769 667.809 110.637 667.809 111.659 667.809 112.732 667.4 113.549 666.583 114.213 665.765 114.877 664.693 115.183 663.365 115.183L570.605 115.183ZM616.985 210.497C615.555 210.497 614.38 210.14 613.46 209.373 612.541 208.607 612.081 207.688 612.081 206.564L612.081 108.083 621.939 108.083 621.939 206.564C621.939 207.688 621.48 208.658 620.56 209.373 619.539 210.088 618.364 210.497 616.985 210.497Z" stroke="#59D3FC" stroke-width="0.255396" stroke-miterlimit="10" fill="#59D3FC" transform="matrix(1.00228 0 0 1 42.7834 220.474)"/><path d="M683.337 210.497C681.906 210.497 680.732 210.14 679.812 209.373 678.893 208.607 678.433 207.688 678.433 206.564L678.433 112.017C678.433 110.893 678.893 109.922 679.812 109.207 680.732 108.441 681.906 108.083 683.337 108.083 684.767 108.083 685.942 108.441 686.861 109.207 687.781 109.973 688.24 110.893 688.24 112.017L688.24 206.564C688.24 207.688 687.781 208.658 686.861 209.373 685.942 210.088 684.767 210.497 683.337 210.497Z" stroke="#59D3FC" stroke-width="0.255396" stroke-miterlimit="10" fill="#59D3FC" transform="matrix(1.00228 0 0 1 42.7834 220.474)"/><path d="M717.764 210.497C716.334 210.497 715.159 210.14 714.24 209.373 713.32 208.607 712.86 207.688 712.86 206.564L712.86 112.017C712.86 110.893 713.32 109.922 714.24 109.207 715.159 108.441 716.334 108.083 717.764 108.083 719.96 108.083 721.442 108.747 722.208 110.024L780.234 201.66 774.513 201.66 831.721 110.024C832.692 108.696 834.173 108.083 836.165 108.083 837.596 108.083 838.719 108.441 839.588 109.207 840.456 109.973 840.916 110.893 840.916 112.017L840.916 206.564C840.916 207.688 840.456 208.658 839.588 209.373 838.719 210.14 837.544 210.497 836.165 210.497 834.735 210.497 833.56 210.14 832.539 209.373 831.568 208.607 831.057 207.688 831.057 206.564L831.057 121.466 833.509 122.13 781.204 207.33C780.438 208.556 779.008 209.169 776.965 209.169 775.024 209.169 773.491 208.352 772.367 206.666L719.45 122.079 722.719 121.415 722.719 206.513C722.719 207.637 722.259 208.607 721.339 209.322 720.318 210.088 719.143 210.497 717.764 210.497Z" stroke="#59D3FC" stroke-width="0.255396" stroke-miterlimit="10" fill="#59D3FC" transform="matrix(1.00228 0 0 1 42.7834 220.474)"/><path d="M870.337 210.497C868.907 210.497 867.732 210.14 866.813 209.373 865.893 208.607 865.434 207.688 865.434 206.564L865.434 112.017C865.434 110.893 865.893 109.922 866.813 109.207 867.732 108.441 868.907 108.083 870.337 108.083 871.768 108.083 872.942 108.441 873.862 109.207 874.781 109.973 875.241 110.893 875.241 112.017L875.241 206.564C875.241 207.688 874.781 208.658 873.862 209.373 872.942 210.088 871.768 210.497 870.337 210.497Z" stroke="#59D3FC" stroke-width="0.255396" stroke-miterlimit="10" fill="#59D3FC" transform="matrix(1.00228 0 0 1 42.7834 220.474)"/><path d="M895.724 210.497C894.293 210.497 893.17 210.14 892.301 209.424 891.433 208.709 890.922 207.892 890.82 206.87 890.718 205.849 891.075 204.929 891.944 204.061L979.647 115.183 895.724 115.183C894.293 115.183 893.119 114.877 892.199 114.315 891.28 113.753 890.82 112.834 890.82 111.608 890.82 110.637 891.28 109.82 892.199 109.105 893.119 108.39 894.293 108.032 895.724 108.032L987.666 108.032C989.198 108.032 990.373 108.39 991.19 109.156 992.008 109.922 992.468 110.74 992.57 111.71 992.672 112.681 992.416 113.498 991.752 114.213L903.437 203.346 987.666 203.346C988.994 203.346 990.118 203.652 991.088 204.214 992.059 204.776 992.57 205.696 992.57 206.922 992.57 207.79 992.059 208.607 991.088 209.322 990.118 210.088 988.943 210.446 987.666 210.446L895.724 210.446Z" stroke="#59D3FC" stroke-width="0.255396" stroke-miterlimit="10" fill="#59D3FC" transform="matrix(1.00228 0 0 1 42.7834 220.474)"/><path d="M1013.05 210.497C1011.62 210.497 1010.45 210.14 1009.53 209.373 1008.61 208.607 1008.15 207.688 1008.15 206.564L1008.15 112.017C1008.15 110.893 1008.61 109.922 1009.53 109.207 1010.45 108.441 1011.62 108.083 1013.05 108.083L1091.87 108.083C1093.2 108.083 1094.32 108.441 1095.29 109.207 1096.26 109.973 1096.77 110.893 1096.77 112.017 1096.77 113.089 1096.26 113.958 1095.29 114.775 1094.32 115.541 1093.14 115.95 1091.87 115.95L1018.01 115.95 1018.01 155.281 1072.25 155.281C1073.68 155.281 1074.86 155.638 1075.78 156.404 1076.7 157.17 1077.16 158.09 1077.16 159.214 1077.16 160.337 1076.7 161.308 1075.78 162.074 1074.86 162.84 1073.68 163.249 1072.25 163.249L1018.01 163.249 1018.01 202.58 1091.92 202.58C1093.25 202.58 1094.37 202.988 1095.34 203.755 1096.31 204.521 1096.82 205.44 1096.82 206.513 1096.82 207.637 1096.31 208.607 1095.34 209.322 1094.37 210.088 1093.2 210.446 1091.92 210.446L1013.05 210.446Z" stroke="#59D3FC" stroke-width="0.255396" stroke-miterlimit="10" fill="#59D3FC" transform="matrix(1.00228 0 0 1 42.7834 220.474)"/><path d="M1117.3 210.497C1115.87 210.497 1114.7 210.14 1113.78 209.373 1112.86 208.607 1112.4 207.688 1112.4 206.564L1112.4 112.017C1112.4 110.791 1112.86 109.82 1113.78 109.156 1114.7 108.441 1115.87 108.083 1117.3 108.083L1148.62 108.083C1156.58 108.083 1163.68 109.411 1169.81 112.068 1175.99 114.724 1180.8 118.401 1184.32 122.999 1187.79 127.647 1189.58 133.01 1189.58 139.14 1189.58 145.065 1187.85 150.377 1184.32 155.025 1180.85 159.673 1175.99 163.3 1169.81 165.905 1163.63 168.51 1156.58 169.838 1148.62 169.838L1122.21 169.838 1122.21 206.564C1122.21 207.688 1121.75 208.658 1120.88 209.373 1120.01 210.088 1118.84 210.497 1117.3 210.497ZM1122.21 161.972 1148.62 161.972C1154.75 161.972 1160.11 161.001 1164.76 159.009 1169.41 157.017 1173.08 154.361 1175.74 150.939 1178.4 147.517 1179.77 143.583 1179.77 139.14 1179.77 134.594 1178.45 130.558 1175.74 127.085 1173.08 123.611 1169.41 120.853 1164.76 118.912 1160.11 116.92 1154.75 115.95 1148.62 115.95L1122.21 115.95 1122.21 161.972ZM1186.11 210.497C1184.88 210.497 1184.01 210.293 1183.4 209.884 1182.79 209.476 1182.23 208.965 1181.66 208.352L1149.08 166.671 1159.24 164.832 1190.19 204.419C1191.62 206.155 1191.93 207.586 1191.11 208.76 1190.3 209.935 1188.66 210.497 1186.11 210.497Z" stroke="#59D3FC" stroke-width="0.255396" stroke-miterlimit="10" fill="#59D3FC" transform="matrix(1.00228 0 0 1 42.7834 220.474)"/><path d="M95.7223 164.322 77.7424 164.322C75.2396 164.322 73.1964 166.365 73.1964 168.868 73.1964 171.37 75.2396 173.414 77.7424 173.414L91.1762 173.414 91.1762 196.042 91.1762 201.916C91.1762 204.419 93.2194 206.462 95.7223 206.462 98.2252 206.462 100.268 204.419 100.268 201.916L100.268 196.042 100.268 168.868C100.268 166.365 98.2252 164.322 95.7223 164.322Z" fill="#59D3FC" transform="matrix(1.00228 0 0 1 42.7834 220.474)"/><path d="M164.373 150.683 146.393 150.683C143.89 150.683 141.847 152.727 141.847 155.229 141.847 157.732 143.89 159.776 146.393 159.776L159.827 159.776 159.827 196.042 159.827 201.916C159.827 204.419 161.87 206.462 164.373 206.462 166.876 206.462 168.919 204.419 168.919 201.916L168.919 196.042 168.919 155.229C168.97 152.727 166.927 150.683 164.373 150.683Z" stroke="#004FF2" stroke-width="0.255396" stroke-miterlimit="10" fill="#004FF2" transform="matrix(1.00228 0 0 1 42.7834 220.474)"/><path d="M200.537 126.625C200.537 124.122 198.493 122.079 195.991 122.079L178.011 122.079C175.508 122.079 173.465 124.122 173.465 126.625 173.465 129.128 175.508 131.171 178.011 131.171L191.445 131.171 191.445 196.042 191.445 198.442 191.445 201.916C191.445 204.419 193.488 206.462 195.991 206.462 198.493 206.462 200.537 204.419 200.537 201.916L200.537 198.442 200.537 196.042 200.537 126.625Z" stroke="#004FF2" stroke-width="0.255396" stroke-miterlimit="10" fill="#004FF2" transform="matrix(1.00228 0 0 1 42.7834 220.474)"/><path d="M196.042 62.9806C191.036 62.9806 187.001 67.0158 187.001 72.0216 187.001 73.0942 187.205 74.1669 187.563 75.1374L184.242 78.8151 150.53 120.904 121.517 95.6712C119.678 94.0878 116.971 94.1899 115.286 95.9266L74.4734 137.914C72.7367 139.701 72.7367 142.613 74.5755 144.35 75.4439 145.218 76.6187 145.627 77.7424 145.627 78.9173 145.627 80.0921 145.167 81.0115 144.247L118.81 105.376 148.181 130.865C149.1 131.682 150.326 132.091 151.552 131.988 152.778 131.886 153.901 131.273 154.719 130.303L191.445 84.3827 194.56 80.9093C195.071 81.0115 195.531 81.0626 196.042 81.0626 201.047 81.0626 205.083 77.0273 205.083 72.0216 205.083 67.0158 201.047 62.9806 196.042 62.9806Z" fill="url(#fill0)" transform="matrix(1.00228 0 0 1 42.7834 220.474)"/><path d="M125.501 136.841 107.522 136.841C105.019 136.841 102.976 138.884 102.976 141.387 102.976 143.89 105.019 145.933 107.522 145.933L120.955 145.933 120.955 196.042 120.955 201.916C120.955 204.419 122.999 206.462 125.501 206.462 128.004 206.462 130.047 204.419 130.047 201.916L130.047 196.042 130.047 141.387C130.047 138.884 128.004 136.841 125.501 136.841Z" fill="#298CF7" transform="matrix(1.00228 0 0 1 42.7834 220.474)"/></g></svg>