<?xml version="1.0" encoding="UTF-8"?><svg id="Capa_1" xmlns="http://www.w3.org/2000/svg" xmlns:xlink="http://www.w3.org/1999/xlink" viewBox="0 0 800 126.48"><defs><style>.cls-1{fill:url(#linear-gradient);}.cls-1,.cls-2,.cls-3,.cls-4{stroke-width:0px;}.cls-2{fill-rule:evenodd;}.cls-2,.cls-4{fill:#fff;}.cls-3{fill:#0b1944;}</style><linearGradient id="linear-gradient" x1="83.95" y1="126.48" x2="83.95" y2="0" gradientUnits="userSpaceOnUse"><stop offset="0" stop-color="#fff"/><stop offset=".05" stop-color="#cacdd6"/><stop offset=".1" stop-color="#979daf"/><stop offset=".16" stop-color="#6c758e"/><stop offset=".21" stop-color="#495373"/><stop offset=".26" stop-color="#2d395e"/><stop offset=".32" stop-color="#1a274f"/><stop offset=".38" stop-color="#0e1c46"/><stop offset=".43" stop-color="#0b1944"/><stop offset=".73" stop-color="#fff"/><stop offset="1" stop-color="#0b1944"/></linearGradient></defs><path class="cls-1" d="M0,126.48L22.13,32.02S26.17-.28,66.22,0h101.69l-22.67,102.96-.81,2.49s-6.98,17.39-20.42,19.32c0,0-7.8,1.38-22.31,1.65l-101.69.06Z"/><path class="cls-4" d="M3.94,123.47L25.04,34.26S28.89,3.75,67.05,4.01h96.92l-21.61,97.25-.77,2.34s-6.66,16.42-19.46,18.25c0,0-7.43,1.3-21.27,1.56l-96.92.05Z"/><path class="cls-3" d="M164.36,3.6l-31.75.19-1.28-.11c-9.92,3.61-17.4,13.8-18.93,20.15l-18.58,75.84h10.99l16.97-69.56c.72-4,5.01-15.09,18.67-16.46h14.84c2.26.02,4.72-.3,6.79-1.08l2.28-8.96Z"/><path class="cls-3" d="M61.92,30.2l-16.97,69.48c-.81,4.1-5,15.1-18.77,16.46l-14.83.09c-2.05-.04-4.05.2-5.95.82l-1.78,6.58,37.15-.15c7.2-4.64,12.33-12.3,13.56-17.43l18.58-75.85h-11Z"/><path class="cls-3" d="M52.5,30.2v.04c-5.64.01-6.94,4.95-6.94,4.95l-.07.1-11.98,49.11c-2.77,11.73-2.77,17.82-19.04,16.73-1.98-.07-3.81.17-5.48.68l-2.57,10.72c1.5-.2,3.4-.21,5.55-.21h12.61c11.52-1.27,14.74-6.83,18.58-22.47l14.92-59.65h-5.58Z"/><path class="cls-3" d="M154.67,17.46h-12.5c-11.53,1.28-14.75,6.82-18.59,22.56l-14.92,59.65h7.91c3.76,0,4.53-4.62,4.53-4.62l.03-.02,12.01-49.65c2.77-11.73,2.77-17.73,19.04-16.64,2.44.07,4.65-.32,6.62-1.11l2.47-10.65c-1.68.31-3.99.49-6.59.49Z"/><path class="cls-3" d="M87.3,32.3c-.79-2.18-3.61-2.09-3.61-2.09h0s-8.71,0-8.71,0l18.05,60.57,5.18-21.83-10.91-36.64Z"/><path class="cls-3" d="M84.09,99.64l7.41-.05-18.05-60.48-5.27,21.74,10.42,34.81c.26,1.02,1.78,3.9,5.5,3.99Z"/><path class="cls-2" d="M204.66,39.29l31.83.04-8.91,37.9-28.91-.02c-5.03,0-8.94-.37-11.68-1.11-2.76-.74-5.13-2.02-7.08-3.87-5.6-5.17-6.9-14.05-3.95-26.68,1.96-8.29,5.18-15.16,9.69-20.6,3.34-4.01,7.3-6.96,11.85-8.79,4.57-1.83,10.15-2.77,16.8-2.77l28.26.04-2.65,11.35h-26.72c-5.75-.02-10.24,1.22-13.44,3.7-3.74,2.94-6.51,8.2-8.3,15.77-.91,3.9-1.34,7.41-1.25,10.53.07,3.14.62,5.45,1.66,7,.92,1.39,2.4,2.43,4.4,3.05,1.97.68,4.57,1.01,7.78,1.01h12.46s3.57-15.18,3.57-15.18h-18.07s2.66-11.38,2.66-11.38h0Z"/><polygon class="cls-2" points="502.39 13.97 487.59 77.13 500.61 77.13 511.13 31.65 526.76 77.13 543.55 77.13 558.48 13.44 545.45 13.43 534.32 61.03 519.86 13.97 502.39 13.97"/><path class="cls-4" d="M575.31,13.43l-8.86,37.75c-.69,2.99-1.01,5.31-.89,6.99.13,1.61.63,3.06,1.58,4.18,2.08,2.56,5.48,3.86,10.19,3.86,3.02,0,5.79-.5,8.26-1.51,2.48-1.01,4.36-2.37,5.62-4.1,1.32-1.76,2.5-4.91,3.55-9.41l8.86-37.75,13.47.02-8.72,37.11c-1.13,4.82-2.59,8.83-4.36,12-1.76,3.15-3.96,5.69-6.6,7.63-5.99,4.29-13.56,6.46-22.76,6.46-9.74,0-16.39-2.11-19.87-6.34-1.86-2.22-2.9-4.68-3.14-7.4-.29-2.72.18-6.51,1.31-11.39l8.93-38.09h13.11s.32,0,.32,0Z"/><path class="cls-4" d="M319.5,13.49l-8.78,37.82c-.69,3.01-.99,5.38-.88,7.04.09,1.68.62,3.09,1.55,4.29,2.09,2.59,5.51,3.88,10.23,3.88,3.04,0,5.8-.52,8.29-1.55,2.5-1,4.37-2.38,5.66-4.15,1.32-1.78,2.5-4.96,3.55-9.51l8.78-37.82h13.46l-8.62,37.15c-1.13,4.92-2.59,8.97-4.36,12.18-1.76,3.19-3.99,5.78-6.61,7.71-6,4.38-13.62,6.56-22.85,6.56-9.76,0-16.43-2.14-19.94-6.41-1.84-2.26-2.89-4.76-3.15-7.5-.26-2.74.19-6.59,1.33-11.54l8.84-38.15h13.49Z"/><path class="cls-2" d="M728.92,13.65l-3.21,11.15h-23.79s-11.33.29-15.4,13.73l35.42-.14-2.9,12.24-36.01-.07s-4.65,13.43,14.8,14h18l-3.19,12.01h-24.08s-21.19,0-21.49-19.16c0,0,1.46-23.75,12.79-33.49,0,0,11.3-11.72,28.72-10.58l20.33.3Z"/><path class="cls-4" d="M458.86,13.46s-30-1.64-38.9,18.63c0,0-20,43.8,14.46,44.93,0,0,33.34,2.72,42.77-28.5,0,0,11.12-33.4-18.33-35.05ZM463.31,45.23s-6.68,24.1-24.45,19.72c0,0-15.02-1.64-6.12-24.65,0,0,5.55-18.61,21.13-16.42,0,0,15.55-.55,9.43,21.35Z"/><path class="cls-2" d="M279.99,13.43l-32.89.03-16.83,63.55h14.29l6.27-23.87h14.68s11.21-.27,10.06,11.34l-1.44,12.56h15.24l1.43-13.15s.87-11.61-7.47-14.17c0,0,16.39-3.96,17.25-19.85,0,0,2.8-16.87-20.59-16.46ZM285.33,33.07c-.86,7.81-10.18,6.98-10.18,6.98h-20.09l3.96-14.76h21.48c6.51.52,4.82,7.78,4.82,7.78Z"/><path class="cls-4" d="M401.77,13.38l-37.31.08-16.43,63.67,14.39-.04,5.87-21.74h26.74s13.8.79,20.26-14.48c0,0,11.44-27.22-13.53-27.5ZM402.07,32.89c-.87,10.41-8.22,10.14-8.22,10.14l-23.21.55,4.99-18.81h19.98c8.8.29,6.46,8.12,6.46,8.12Z"/><polygon class="cls-4" points="621.63 13.43 679.07 13.43 675.78 25.49 654.07 25.49 640.73 77.05 627.01 77.06 639.66 25.49 618.89 25.49 621.63 13.43"/><path class="cls-2" d="M787.03,12.87l-3.64,12.34h-22.98s-14.38-1.45-18.74,11.24l-4.9,16.03s-4.41,14.62,15.79,13.19h21.15l-3.71,11.48-31.45.23s-20.86.48-18.03-23.5c0,0,2.33-12.64,6.04-19.65,0,0,6.75-19.37,31.34-20.99l29.13-.35Z"/><path class="cls-4" d="M793.24,16.53c-.03-.67-.05-1.48-.05-2.3h-.02c-.19.71-.44,1.51-.65,2.16l-.7,2.19h-1.03l-.62-2.17c-.19-.65-.37-1.44-.53-2.19h0c-.03.76-.07,1.62-.09,2.32l-.12,2.13h-1.21l.37-5.6h1.76l.56,1.87c.19.65.36,1.34.49,2h.03c.16-.65.36-1.39.55-2.01l.61-1.86h1.72l.31,5.6h-1.27l-.09-2.15Z"/><path class="cls-4" d="M795.62,13.16c.42-.07,1.05-.13,1.74-.13.86,0,1.46.13,1.87.45.36.26.55.66.55,1.17,0,.71-.53,1.19-1.03,1.37v.02c.4.16.63.52.78,1.04.17.64.35,1.37.46,1.59h-1.35c-.08-.17-.23-.62-.39-1.31-.17-.71-.41-.88-.95-.9h-.39v2.21h-1.3v-5.51ZM796.92,15.56h.52c.65,0,1.05-.31,1.05-.81s-.37-.77-.97-.77c-.32,0-.51.02-.6.04v1.53Z"/><path class="cls-2" d="M587.28,84.51h-4.97s-13.7,20.29-13.7,20.29h5.51s3.38-4.8,3.38-4.8h7.3l1.07,4.8h4.68s-3.27-20.29-3.27-20.29ZM579.11,96.18l4.1-6.15,1.23,6.35-5.33-.21Z"/><path class="cls-2" d="M782.86,84.51h-4.98s-13.69,20.29-13.69,20.29h5.51s3.37-4.8,3.37-4.8h7.3l1.06,4.8h4.67s-3.26-20.29-3.26-20.29ZM774.69,96.18l4.1-6.15,1.23,6.35-5.34-.21Z"/><path class="cls-2" d="M558.96,84.54l4.43.06-3.02,12.33s-1.22,4.37,2.95,4.18h5.52l-.84,3.6-7.13.06s-6.17.26-5.21-6.23l3.29-14Z"/><path class="cls-4" d="M663.79,84.23l-1.09,3.99h-6.9s-4.32-.47-5.63,3.63l-1.47,5.18s-1.32,4.72,4.74,4.26h6.36l-1.12,3.71-9.44.08s-6.27.15-5.42-7.6c0,0,.7-4.09,1.82-6.36,0,0,2.02-6.27,9.41-6.79l8.74-.11Z"/><path class="cls-4" d="M760.97,84.23l-1.1,3.99h-6.89s-4.33-.47-5.64,3.63l-1.47,5.18s-1.31,4.72,4.73,4.26h6.36l-1.11,3.71-9.45.08s-6.26.15-5.42-7.6c0,0,.7-4.09,1.82-6.36,0,0,2.02-6.27,9.4-6.79l8.76-.11Z"/><path class="cls-4" d="M625.4,84l-1.08,3.8h-8s-3.79.1-5.16,4.68l11.89.29-.98,4-12.08-.19s-1.56,4.58,4.97,4.77h6.03l-1.06,4.09h-8.09s-7.11,0-7.21-6.53c0,0,.49-8.08,4.29-11.4,0,0,3.8-3.99,9.64-3.6l6.83.1Z"/><path class="cls-4" d="M683.91,84l-1.07,3.8h-7.98s-3.8.1-5.16,4.68l11.88.29-.97,3.99-12.07-.19s-1.57,4.58,4.96,4.77h6.04l-1.07,4.09h-8.08s-7.11,0-7.22-6.53c0,0,.49-8.08,4.3-11.4,0,0,3.8-3.99,9.64-3.6l6.82.1Z"/><path class="cls-4" d="M719.43,84l-1.07,3.8h-7.99s-3.8.1-5.17,4.68l11.89.29-.97,3.99-12.08-.19s-1.56,4.58,4.96,4.77h6.05l-1.08,4.09h-8.08s-7.11,0-7.21-6.53c0,0,.49-8.08,4.29-11.4,0,0,3.8-3.99,9.65-3.6l6.83.1Z"/><path class="cls-4" d="M686.06,83.93l4.71.07-3.2,13.06s-1.3,4.63,3.13,4.43h5.85l-.89,3.81-7.55.06s-6.54.28-5.52-6.6l3.47-14.84Z"/><polygon class="cls-4" points="627.6 84.18 633.2 84.18 635.63 90.73 641.52 84.11 646.97 84.11 637.59 94.24 642.18 105.2 636.65 105.2 633.82 98.22 627.57 105.2 622.11 105.2 631.85 94.37 627.6 84.18"/><polygon class="cls-2" points="763.59 84.34 767.94 84.32 762.72 104.97 758.47 104.99 763.47 84.88 763.59 84.34"/><path class="cls-2" d="M474.24,84.44l-5,.02-13.8,20.41h5.55s3.4-4.84,3.4-4.84h7.34l1.07,4.84h4.71s-3.28-20.42-3.28-20.42ZM466.01,96.19l4.13-6.19,1.24,6.4-5.37-.21Z"/><path class="cls-2" d="M445.33,84.4l4.5.06-3.06,12.51s-1.23,4.43,2.99,4.24h5.61l-.86,3.65-7.23.06s-6.25.27-5.27-6.31l3.31-14.2Z"/><path class="cls-2" d="M431.09,84.32l-2.84,12.29c-.23.98-.32,1.75-.29,2.29.04.55.21,1.01.5,1.39.68.84,1.79,1.26,3.32,1.26.98,0,1.88-.16,2.68-.5.81-.33,1.42-.78,1.83-1.35.42-.58.8-1.61,1.16-3.09l2.83-12.29h4.36l-2.79,12.08c-.37,1.59-.84,2.91-1.42,3.95-.56,1.05-1.27,1.88-2.13,2.52-1.94,1.41-4.4,2.13-7.38,2.13-3.17,0-5.32-.7-6.45-2.09-.59-.73-.93-1.54-1.02-2.44-.1-.89.06-2.14.43-3.75l2.86-12.39h4.36Z"/><polygon class="cls-2" points="403.01 84.36 409.66 84.36 410.64 99.95 419.97 84.36 426.46 84.38 421.23 104.94 417.19 104.91 420.86 90.1 411.64 104.91 407.39 104.91 406.01 89.85 401.96 104.95 397.75 104.95 403.01 84.36"/><path class="cls-2" d="M394.49,84.45l-10.52-.09-5.18,20.22,4.53.28,1.84-7.57h4.72s3.6-.09,3.23,3.7l-.46,3.97h4.9l.47-4.16s.27-3.78-2.4-4.61c0,0,5.26-1.29,5.54-6.46,0,0,.92-5.82-6.65-5.26ZM396.15,90.38c-.28,2.58-3.32,2.31-3.32,2.31h-6.56l1.3-4.9h7.02c2.13.19,1.57,2.59,1.57,2.59Z"/><path class="cls-2" d="M374.99,84.44s-9.51-.53-12.33,5.99c0,0-6.34,14.09,4.58,14.44,0,0,10.57.88,13.57-9.16,0,0,3.52-10.75-5.82-11.27ZM376.4,94.66s-2.11,7.75-7.75,6.34c0,0-4.76-.53-1.94-7.93,0,0,1.75-5.99,6.7-5.28,0,0,4.93-.18,2.99,6.88Z"/><path class="cls-2" d="M519.12,84.45s-9.5-.53-12.31,5.97c0,0-6.33,14.07,4.57,14.42,0,0,10.55.88,13.54-9.14,0,0,3.51-10.73-5.81-11.25ZM520.53,94.66s-2.12,7.73-7.74,6.33c0,0-4.75-.53-1.93-7.91,0,0,1.76-5.98,6.68-5.27,0,0,4.92-.18,3,6.86Z"/><polygon class="cls-2" points="722.65 83.71 717.59 105.61 722.04 105.61 725.64 89.83 730.97 105.61 736.7 105.61 741.7 83.99 737.31 83.71 733.55 100.02 728.61 83.71 722.65 83.71"/><polygon class="cls-2" points="483.43 84.32 490.11 84.32 491.09 99.98 500.45 84.32 506.97 84.34 501.72 104.99 497.66 104.96 501.34 90.08 492.1 104.96 487.84 104.96 486.44 89.83 482.38 104.99 478.14 104.99 483.43 84.32"/><path class="cls-2" d="M360.15,92.71l-.88,3.8h-12.77l-2.04,8.84h-4.55l2.58-11.18c.77-3.2,1.57-5.32,2.39-6.33,1.04-1.4,2.33-2.4,3.84-3,1.52-.59,3.54-.89,6.03-.89h7.4l-.89,3.81h-6.82c-2.12.03-3.53.2-4.2.52-1.32.48-2.19,1.58-2.61,3.27l-.26,1.15h12.76Z"/><path class="cls-2" d="M546.12,84.71l-.86,3.49-10.04-.02s-3.01-.33-3.56,2.25c0,0-.69,2.54,2.28,2.13l7.02.42s3.78.32,2.98,4.52c0,0,.26,6.2-6.07,7.16h-13.28l.81-3.46,10.69-.1s2.88.02,3.08-2.24c0,0,.75-2.14-1.94-2.5l-7.49-.36s-4.15-.96-2.59-6.2c0,0,1.18-4.52,6.38-5.11l12.59.04Z"/><path class="cls-2" d="M587.28,84.51h-4.97s-13.7,20.29-13.7,20.29h5.51s3.38-4.8,3.38-4.8h7.3l1.07,4.8h4.68s-3.27-20.29-3.27-20.29ZM579.11,96.18l4.1-6.15,1.23,6.35-5.33-.21Z"/><path class="cls-2" d="M782.86,84.51h-4.98s-13.69,20.29-13.69,20.29h5.51s3.37-4.8,3.37-4.8h7.3l1.06,4.8h4.67s-3.26-20.29-3.26-20.29ZM774.69,96.18l4.1-6.15,1.23,6.35-5.34-.21Z"/><path class="cls-2" d="M558.96,84.54l4.43.06-3.02,12.33s-1.22,4.37,2.95,4.18h5.52l-.84,3.6-7.13.06s-6.17.26-5.21-6.23l3.29-14Z"/><path class="cls-4" d="M663.79,84.23l-1.09,3.99h-6.9s-4.32-.47-5.63,3.63l-1.47,5.18s-1.32,4.72,4.74,4.26h6.36l-1.12,3.71-9.44.08s-6.27.15-5.42-7.6c0,0,.7-4.09,1.82-6.36,0,0,2.02-6.27,9.41-6.79l8.74-.11Z"/><path class="cls-4" d="M760.97,84.23l-1.1,3.99h-6.89s-4.33-.47-5.64,3.63l-1.47,5.18s-1.31,4.72,4.73,4.26h6.36l-1.11,3.71-9.45.08s-6.26.15-5.42-7.6c0,0,.7-4.09,1.82-6.36,0,0,2.02-6.27,9.4-6.79l8.76-.11Z"/><path class="cls-4" d="M625.4,84l-1.08,3.8h-8s-3.79.1-5.16,4.68l11.89.29-.98,4-12.08-.19s-1.56,4.58,4.97,4.77h6.03l-1.06,4.09h-8.09s-7.11,0-7.21-6.53c0,0,.49-8.08,4.29-11.4,0,0,3.8-3.99,9.64-3.6l6.83.1Z"/><path class="cls-4" d="M683.91,84l-1.07,3.8h-7.98s-3.8.1-5.16,4.68l11.88.29-.97,3.99-12.07-.19s-1.57,4.58,4.96,4.77h6.04l-1.07,4.09h-8.08s-7.11,0-7.22-6.53c0,0,.49-8.08,4.3-11.4,0,0,3.8-3.99,9.64-3.6l6.82.1Z"/><path class="cls-4" d="M719.43,84l-1.07,3.8h-7.99s-3.8.1-5.17,4.68l11.89.29-.97,3.99-12.08-.19s-1.56,4.58,4.96,4.77h6.05l-1.08,4.09h-8.08s-7.11,0-7.21-6.53c0,0,.49-8.08,4.29-11.4,0,0,3.8-3.99,9.65-3.6l6.83.1Z"/><path class="cls-4" d="M686.06,83.93l4.71.07-3.2,13.06s-1.3,4.63,3.13,4.43h5.85l-.89,3.81-7.55.06s-6.54.28-5.52-6.6l3.47-14.84Z"/><polygon class="cls-4" points="627.6 84.18 633.2 84.18 635.63 90.73 641.52 84.11 646.97 84.11 637.59 94.24 642.18 105.2 636.65 105.2 633.82 98.22 627.57 105.2 622.11 105.2 631.85 94.37 627.6 84.18"/><polygon class="cls-2" points="763.59 84.34 767.94 84.32 762.72 104.97 758.47 104.99 763.47 84.88 763.59 84.34"/><path class="cls-2" d="M474.24,84.44l-5,.02-13.8,20.41h5.55s3.4-4.84,3.4-4.84h7.34l1.07,4.84h4.71s-3.28-20.42-3.28-20.42ZM466.01,96.19l4.13-6.19,1.24,6.4-5.37-.21Z"/><path class="cls-2" d="M445.33,84.4l4.5.06-3.06,12.51s-1.23,4.43,2.99,4.24h5.61l-.86,3.65-7.23.06s-6.25.27-5.27-6.31l3.31-14.2Z"/><path class="cls-2" d="M431.09,84.32l-2.84,12.29c-.23.98-.32,1.75-.29,2.29.04.55.21,1.01.5,1.39.68.84,1.79,1.26,3.32,1.26.98,0,1.88-.16,2.68-.5.81-.33,1.42-.78,1.83-1.35.42-.58.8-1.61,1.16-3.09l2.83-12.29h4.36l-2.79,12.08c-.37,1.59-.84,2.91-1.42,3.95-.56,1.05-1.27,1.88-2.13,2.52-1.94,1.41-4.4,2.13-7.38,2.13-3.17,0-5.32-.7-6.45-2.09-.59-.73-.93-1.54-1.02-2.44-.1-.89.06-2.14.43-3.75l2.86-12.39h4.36Z"/><polygon class="cls-2" points="403.01 84.36 409.66 84.36 410.64 99.95 419.97 84.36 426.46 84.38 421.23 104.94 417.19 104.91 420.86 90.1 411.64 104.91 407.39 104.91 406.01 89.85 401.96 104.95 397.75 104.95 403.01 84.36"/><path class="cls-2" d="M394.49,84.45l-10.52-.09-5.18,20.22,4.53.28,1.84-7.57h4.72s3.6-.09,3.23,3.7l-.46,3.97h4.9l.47-4.16s.27-3.78-2.4-4.61c0,0,5.26-1.29,5.54-6.46,0,0,.92-5.82-6.65-5.26ZM396.15,90.38c-.28,2.58-3.32,2.31-3.32,2.31h-6.56l1.3-4.9h7.02c2.13.19,1.57,2.59,1.57,2.59Z"/><path class="cls-2" d="M374.99,84.44s-9.51-.53-12.33,5.99c0,0-6.34,14.09,4.58,14.44,0,0,10.57.88,13.57-9.16,0,0,3.52-10.75-5.82-11.27ZM376.4,94.66s-2.11,7.75-7.75,6.34c0,0-4.76-.53-1.94-7.93,0,0,1.75-5.99,6.7-5.28,0,0,4.93-.18,2.99,6.88Z"/><path class="cls-2" d="M519.12,84.45s-9.5-.53-12.31,5.97c0,0-6.33,14.07,4.57,14.42,0,0,10.55.88,13.54-9.14,0,0,3.51-10.73-5.81-11.25ZM520.53,94.66s-2.12,7.73-7.74,6.33c0,0-4.75-.53-1.93-7.91,0,0,1.76-5.98,6.68-5.27,0,0,4.92-.18,3,6.86Z"/><polygon class="cls-2" points="722.65 83.71 717.59 105.61 722.04 105.61 725.64 89.83 730.97 105.61 736.7 105.61 741.7 83.99 737.31 83.71 733.55 100.02 728.61 83.71 722.65 83.71"/><polygon class="cls-2" points="483.43 84.32 490.11 84.32 491.09 99.98 500.45 84.32 506.97 84.34 501.72 104.99 497.66 104.96 501.34 90.08 492.1 104.96 487.84 104.96 486.44 89.83 482.38 104.99 478.14 104.99 483.43 84.32"/><path class="cls-2" d="M360.15,92.71l-.88,3.8h-12.77l-2.04,8.84h-4.55l2.58-11.18c.77-3.2,1.57-5.32,2.39-6.33,1.04-1.4,2.33-2.4,3.84-3,1.52-.59,3.54-.89,6.03-.89h7.4l-.89,3.81h-6.82c-2.12.03-3.53.2-4.2.52-1.32.48-2.19,1.58-2.61,3.27l-.26,1.15h12.76Z"/><path class="cls-2" d="M546.12,84.71l-.86,3.49-10.04-.02s-3.01-.33-3.56,2.25c0,0-.69,2.54,2.28,2.13l7.02.42s3.78.32,2.98,4.52c0,0,.26,6.2-6.07,7.16h-13.28l.81-3.46,10.69-.1s2.88.02,3.08-2.24c0,0,.75-2.14-1.94-2.5l-7.49-.36s-4.15-.96-2.59-6.2c0,0,1.18-4.52,6.38-5.11l12.59.04Z"/></svg>