<?xml version="1.0" encoding="UTF-8"?><svg id="Capa_1" xmlns="http://www.w3.org/2000/svg" xmlns:xlink="http://www.w3.org/1999/xlink" viewBox="0 0 591.19 139.11"><defs><style>.cls-1{fill:url(#Degradado_sin_nombre_85);}.cls-1,.cls-2,.cls-3,.cls-4{stroke-width:0px;}.cls-2{fill:#89b6e6;}.cls-3{fill:#fff;}.cls-4{fill:#0059c4;}</style><linearGradient id="Degradado_sin_nombre_85" x1="37.74" y1="131.43" x2="101.37" y2="7.68" gradientUnits="userSpaceOnUse"><stop offset="0" stop-color="#89b6e6"/><stop offset=".09" stop-color="#73a7e0"/><stop offset=".29" stop-color="#4a8bd6"/><stop offset=".49" stop-color="#2a75ce"/><stop offset=".67" stop-color="#1265c8"/><stop offset=".85" stop-color="#045cc5"/><stop offset="1" stop-color="#0059c4"/></linearGradient></defs><path class="cls-4" d="M252.61,118.4l-27.05-68.89-12.13,68.89h-18.13l16.32-92.59h24.26l26.49,67.49,11.99-67.49h18.13l-16.31,92.59h-23.57Z"/><path class="cls-4" d="M290.4,118.4l16.32-92.59h18.96l-16.31,92.59h-18.96Z"/><path class="cls-4" d="M383.68,118.4l-16.32-34.44h-18.83l-6,34.44h-18.96l16.32-92.59h47.97c9.85,0,16.92,2.37,21.2,7.11,4.28,4.74,5.53,12.04,3.77,21.89-.84,4.93-2.14,9.04-3.9,12.34-1.77,3.3-3.77,6-6,8.09-2.23,2.09-4.58,3.72-7.04,4.88-2.46,1.16-4.81,2.02-7.04,2.58l17.71,35.7h-22.87ZM376.99,67.78c4.55,0,8.13-1.02,10.74-3.07,2.6-2.04,4.32-5.3,5.16-9.76.74-4.65.16-7.97-1.74-9.97-1.91-2-5.14-3-9.69-3h-25.52l-4.46,25.8h25.52Z"/><path class="cls-2" d="M453.69,118.4c-15.43,0-26.17-3.77-32.21-11.29-6.04-7.53-7.67-19.2-4.88-35,2.79-15.71,8.53-27.35,17.22-34.93,8.69-7.58,20.75-11.36,36.19-11.36h26.91l-2.93,16.18h-23.15c-4.65,0-8.72.4-12.2,1.19-3.49.79-6.53,2.05-9.13,3.76-2.6,1.72-4.76,3.95-6.48,6.69-1.72,2.74-3.19,6.11-4.39,10.11h50.34l-2.93,16.18h-50.34c-.65,8,.93,13.71,4.74,17.15,3.81,3.44,10.41,5.16,19.8,5.16h24.54l-2.79,16.18h-28.31Z"/><path class="cls-2" d="M534.98,119.94c-15.34,0-26.24-4-32.7-11.99-6.46-7.99-8.3-19.94-5.51-35.84,2.79-15.9,8.83-27.84,18.13-35.84,9.29-7.99,21.61-11.99,36.95-11.99s26.22,4,32.63,11.99c6.42,8,8.23,19.94,5.44,35.84-2.79,15.9-8.81,27.84-18.06,35.84-9.25,8-21.54,11.99-36.88,11.99ZM537.77,103.62c8.55,0,15.57-2.49,21.06-7.46,5.48-4.97,9.2-12.99,11.16-24.05,1.95-11.06,1.09-19.08-2.58-24.05-3.67-4.97-9.83-7.46-18.48-7.46s-15.57,2.49-21.06,7.46c-5.49,4.97-9.2,12.99-11.16,24.05-1.95,11.06-1.09,19.08,2.58,24.05,3.67,4.97,9.83,7.46,18.48,7.46Z"/><circle class="cls-1" cx="69.56" cy="69.56" r="69.56"/><path class="cls-3" d="M46.32,23.08v11.62l3.87,3.87v17.04h11.62c1.28,0,2.32,1.04,2.32,2.32s-1.04,2.32-2.32,2.32h-11.62v10.85h11.62c1.28,0,2.32,1.04,2.32,2.32s-1.04,2.32-2.32,2.32h-11.62v10.85h11.62c1.28,0,2.32,1.04,2.32,2.32s-1.04,2.32-2.32,2.32h-11.62v9.3c0,8.56,10.81,15.49,19.37,15.49s19.37-6.94,19.37-15.49v-61.98l3.87-3.87v-11.62h-46.48Z"/></svg>