<?xml version="1.0" encoding="UTF-8"?><svg id="Capa_1" xmlns="http://www.w3.org/2000/svg" xmlns:xlink="http://www.w3.org/1999/xlink" viewBox="0 0 675.82 139.11"><defs><style>.cls-1{fill:url(#Degradado_sin_nombre_85);}.cls-1,.cls-2,.cls-3,.cls-4{stroke-width:0px;}.cls-2{fill:#89b6e6;}.cls-3{fill:#fff;}.cls-4{fill:#0059c4;}</style><linearGradient id="Degradado_sin_nombre_85" x1="37.74" y1="131.43" x2="101.37" y2="7.69" gradientUnits="userSpaceOnUse"><stop offset="0" stop-color="#89b6e6"/><stop offset=".09" stop-color="#73a7e0"/><stop offset=".29" stop-color="#4a8bd6"/><stop offset=".49" stop-color="#2a75ce"/><stop offset=".67" stop-color="#1265c8"/><stop offset=".85" stop-color="#045cc5"/><stop offset="1" stop-color="#0059c4"/></linearGradient></defs><path class="cls-4" d="M252.61,118.15l-27.05-68.89-12.13,68.89h-18.13l16.32-92.59h24.26l26.49,67.49,11.99-67.49h18.13l-16.31,92.59h-23.57Z"/><path class="cls-4" d="M325.54,118.15c-23.8,0-33.61-11.85-29.42-35.56l10.18-57.03h18.96l-9.76,54.66c-1.39,8-.75,13.62,1.95,16.87,2.7,3.26,8.04,4.88,16.04,4.88h19.1l13.53-76.42h19.1l-16.32,92.59h-43.37Z"/><path class="cls-2" d="M418.27,118.15c-23.8,0-33.61-11.85-29.42-35.56l10.18-57.03h18.96l-9.76,54.66c-1.39,8-.75,13.62,1.95,16.87,2.7,3.26,8.04,4.88,16.04,4.88h23.71l-2.79,16.18h-28.87Z"/><path class="cls-2" d="M453.97,118.15l16.32-92.59h18.96l-16.31,92.59h-18.96Z"/><path class="cls-2" d="M544.47,118.15l-27.05-68.89-12.13,68.89h-18.13l16.32-92.59h24.26l26.49,67.49,11.99-67.49h18.13l-16.31,92.59h-23.57Z"/><path class="cls-2" d="M637.34,118.15l-28.31-44.48-7.81,44.48h-18.96l16.32-92.59h18.96l-7.67,43.37,43.79-43.37h22.17l-46.02,45.46,31.1,47.13h-23.57Z"/><circle class="cls-1" cx="69.56" cy="69.56" r="69.56"/><path class="cls-3" d="M120.62,59.69c-3.5-6.35-10.25-10.67-18-10.67-5.21,0-9.96,1.97-13.58,5.18-.92-.57-1.83-1.13-2.71-1.67-1.63-1.01-3.21-1.98-4.78-2.93-1.89-1.14-4.35-.53-5.49,1.36-1.14,1.89-.53,4.35,1.36,5.49,1.54.93,3.09,1.89,4.7,2.88.67.42,1.37.84,2.06,1.27-1.32,2.71-2.08,5.74-2.08,8.95,0,2.11.32,4.14.91,6.06-4.4,2.83-9.56,6.26-15.63,10.38-3.42-4.78-8.83-8.04-15.01-8.55-.49-5.43-.69-10.7-.61-15.75,10.82-.57,19.45-9.52,19.45-20.48,0-8.05-4.67-15.01-11.42-18.38,5.51-12.02,12.6-19.02,16.95-22.48C74.37.13,71.98,0,69.56,0c-1.44,0-2.87.06-4.29.14-4.38,4.71-9.31,11.42-13.33,20.6-.42-.03-.84-.06-1.26-.06-7.18,0-13.5,3.71-17.17,9.31-6.84-1.99-12.86-3.49-17.69-4.57-1.85,2.24-3.54,4.62-5.1,7.08,4.96,1.04,11.77,2.64,19.79,4.95-.23,1.22-.36,2.48-.36,3.77,0,8.9,5.7,16.47,13.63,19.31-.14,5.7.08,11.67.64,17.81-.86.28-1.71.6-2.54,1-2,.95-2.85,3.34-1.9,5.33.95,2,3.34,2.85,5.33,1.9,1.22-.58,2.5-.94,3.83-1.1.02,0,.04,0,.06,0,.03,0,.06-.02.1-.02.46-.05.92-.07,1.38-.07,6.91,0,12.53,5.62,12.53,12.53,0,5.74-3.88,10.58-9.15,12.05,0,0-.02,0-.03,0,0,0-.01,0-.02,0-1.06.29-2.17.46-3.32.46-6.91,0-12.53-5.62-12.53-12.53,0-2.21-1.79-4-4-4s-4,1.79-4,4c0,5.04,1.84,9.66,4.87,13.24-3.85,3.47-7.63,7.05-11.29,10.71,2.02,1.77,4.14,3.43,6.36,4.96,3.67-3.64,7.45-7.19,11.3-10.63,2.79,1.43,5.95,2.25,9.29,2.25.51,0,1-.04,1.5-.08,1.07,3.75,2.26,7.6,3.54,11.5.56,1.68,2.12,2.75,3.8,2.75.42,0,.84-.07,1.26-.2,2.1-.69,3.24-2.96,2.55-5.06-1.25-3.77-2.4-7.5-3.43-11.12,6.7-3.38,11.32-10.32,11.32-18.32,0-1.54-.18-3.03-.51-4.48,6.3-4.29,11.63-7.83,16.14-10.75,3.77,4.53,9.45,7.42,15.78,7.42,5.36,0,10.24-2.08,13.9-5.46.42.38.83.75,1.26,1.13,5.15,4.6,10.45,9.35,14.27,14.37,1.32-2.7,2.47-5.51,3.44-8.39-3.83-4.3-8.29-8.3-12.37-11.95-.63-.56-1.24-1.11-1.85-1.66,1.21-2.61,1.9-5.51,1.9-8.57,0-.75-.05-1.49-.13-2.22,4.69-1.26,10.23-2.38,15.84-3.42-.22-2.69-.57-5.34-1.09-7.94-6.03,1.11-12.03,2.33-17.16,3.72ZM38.14,41.22c0-6.91,5.62-12.53,12.53-12.53s12.53,5.62,12.53,12.53-5.62,12.53-12.53,12.53-12.53-5.62-12.53-12.53ZM102.62,82.09c-6.91,0-12.53-5.62-12.53-12.53s5.62-12.53,12.53-12.53,12.53,5.62,12.53,12.53-5.62,12.53-12.53,12.53Z"/></svg>